<svg version="1.0" xmlns="http://www.w3.org/2000/svg" viewBox="0 0 2600 2600" width="24" height="24">
    <g transform="translate(0.000000, 2600.000000) scale(0.100000, -0.100000)">
        <path d="M17297 22705 c-32 -8 -79 -25 -105 -37 -26 -13 -1399 -813 -3051
-1778 -2832 -1655 -3008 -1759 -3083 -1829 -203 -190 -318 -461 -318 -745 0
-126 20 -221 64 -311 42 -86 90 -143 153 -183 27 -17 358 -161 737 -321 378
-159 691 -292 694 -296 3 -3 -9 -22 -26 -44 -191 -238 -485 -666 -704 -1026
-892 -1468 -1619 -3295 -2073 -5215 -86 -363 -217 -989 -217 -1038 0 -13 20
-50 46 -83 l47 -60 -87 -122 c-246 -345 -502 -643 -775 -904 -120 -115 -128
-119 -292 -133 -235 -20 -555 44 -782 157 -607 303 -720 893 -325 1697 73 150
184 337 284 479 81 115 98 159 136 338 26 126 26 233 0 277 -11 17 -26 32 -33
32 -8 0 -28 7 -45 15 -40 20 -87 5 -174 -57 -85 -61 -326 -310 -417 -432 -167
-222 -357 -568 -471 -857 -354 -899 -373 -1714 -49 -2191 22 -32 39 -60 39
-63 0 -24 -443 184 -592 278 -451 285 -725 671 -816 1148 -50 257 -54 614 -12
929 141 1057 709 2495 1820 4610 123 234 263 506 310 605 598 1238 794 2259
568 2964 -152 476 -500 789 -932 841 -205 24 -413 -35 -517 -148 -62 -67 -91
-139 -91 -225 0 -100 26 -173 116 -326 168 -285 252 -530 302 -876 22 -149 25
-564 6 -735 -129 -1143 -667 -2490 -1827 -4575 -264 -474 -349 -636 -448 -850
-252 -546 -405 -1041 -463 -1500 -20 -157 -22 -480 -5 -617 105 -834 580
-1419 1571 -1936 162 -85 501 -243 628 -293 628 -250 1352 -197 2082 152 154
73 157 70 18 -16 -176 -110 -398 -212 -567 -261 -162 -47 -235 -53 -626 -47
-297 5 -385 3 -503 -11 -309 -36 -522 -120 -599 -237 -37 -57 -44 -147 -15
-213 25 -56 108 -146 182 -196 358 -243 966 -319 1564 -194 154 33 388 109
583 190 219 91 587 277 796 402 32 19 60 32 63 30 5 -6 -355 -351 -512 -489
-172 -152 -303 -257 -524 -419 -625 -458 -942 -743 -1025 -921 -41 -89 -29
-135 44 -171 43 -21 59 -23 221 -23 143 1 204 6 335 28 176 30 495 100 705
153 332 85 648 250 1130 589 l55 39 -31 -35 c-16 -19 -109 -119 -205 -224
-448 -486 -680 -774 -771 -955 -36 -72 -46 -136 -26 -163 50 -67 274 1 686
209 375 190 519 298 890 673 l234 235 -8 -60 c-4 -32 -7 -203 -7 -379 -1 -426
16 -571 99 -852 138 -471 267 -758 350 -779 111 -28 191 272 239 901 15 199
34 520 36 599 0 23 11 -19 24 -99 60 -372 138 -657 239 -870 96 -204 370 -667
486 -822 247 -332 378 -338 431 -18 18 111 16 511 -5 754 -9 107 -30 317 -46
467 -16 150 -35 382 -41 516 -12 263 -4 866 12 883 6 5 9 2 9 -9 0 -31 185
-575 250 -736 85 -209 169 -391 242 -524 323 -587 853 -1082 1363 -1271 369
-137 625 -78 625 145 0 164 -142 409 -391 674 l-83 89 94 -72 c197 -151 362
-238 685 -361 530 -202 944 -313 1304 -350 134 -13 395 -13 519 1 952 105
1681 811 2206 2137 103 259 179 487 302 902 464 1562 826 2537 1264 3405 522
1034 1068 1666 1695 1966 150 71 259 110 451 159 168 42 235 72 301 133 67 61
95 125 101 223 7 128 -26 221 -125 352 -186 244 -557 391 -895 354 -674 -74
-1296 -657 -1819 -1703 -228 -457 -328 -716 -634 -1644 -114 -346 -256 -767
-315 -935 -953 -2698 -1791 -4017 -2758 -4340 -193 -65 -329 -83 -562 -77
-116 3 -231 12 -283 21 -359 67 -748 225 -958 387 -68 53 -142 120 -137 123 1
2 36 -1 77 -7 209 -29 498 52 733 206 524 341 1038 1141 1273 1982 75 269 103
447 112 710 10 312 -24 426 -119 393 -59 -21 -196 -196 -276 -353 -17 -35 -37
-98 -47 -150 -114 -613 -380 -1161 -680 -1401 -155 -125 -301 -183 -482 -191
-192 -10 -359 30 -565 135 -293 149 -486 329 -600 559 l-43 87 1 136 c2 146
24 397 55 604 19 130 69 419 74 424 1 1 26 9 55 16 61 16 46 -2 219 250 1204
1754 2113 3639 2634 5461 146 511 270 1071 323 1463 11 82 22 131 28 129 6 -3
310 -131 676 -285 366 -154 683 -285 705 -293 22 -7 76 -13 120 -12 145 2 276
66 416 203 131 128 217 274 275 466 25 81 28 104 28 249 l0 160 -842 3362
c-463 1849 -853 3391 -866 3427 -48 126 -150 237 -254 276 -73 28 -188 34
-265 15z m-4213 -16696 c30 -51 40 -83 57 -178 99 -588 325 -1110 657 -1520
l86 -106 -105 92 c-138 120 -226 216 -301 327 -176 264 -304 622 -383 1078
-23 131 -55 368 -49 368 1 0 18 -28 38 -61z"/>
    </g>
</svg>
